<svg width="16" height="18" viewBox="0 0 16 18" fill="none" xmlns="http://www.w3.org/2000/svg">
<path d="M1 4.11108H2.55556H15" stroke="#E20202" stroke-width="1.25" stroke-linecap="round" stroke-linejoin="round"/>
<path d="M13.4444 4.11111V15C13.4444 15.4126 13.2805 15.8082 12.9888 16.0999C12.6971 16.3917 12.3014 16.5556 11.8889 16.5556H4.1111C3.69854 16.5556 3.30288 16.3917 3.01115 16.0999C2.71943 15.8082 2.55554 15.4126 2.55554 15V4.11111M4.88888 4.11111V2.55556C4.88888 2.143 5.05276 1.74733 5.34449 1.45561C5.63621 1.16389 6.03187 1 6.44443 1H9.55554C9.9681 1 10.3638 1.16389 10.6555 1.45561C10.9472 1.74733 11.1111 2.143 11.1111 2.55556V4.11111" stroke="#E20202" stroke-width="1.25" stroke-linecap="round" stroke-linejoin="round"/>
<path d="M6.44446 8V12.6667" stroke="#E20202" stroke-width="1.25" stroke-linecap="round" stroke-linejoin="round"/>
<path d="M9.55554 8V12.6667" stroke="#E20202" stroke-width="1.25" stroke-linecap="round" stroke-linejoin="round"/>
</svg>
